<mxfile host="app.diagrams.net" modified="2022-06-20T01:06:49.820Z" agent="5.0 (Macintosh; Intel Mac OS X 10_15_7) AppleWebKit/605.1.15 (KHTML, like Gecko) Version/15.5 Safari/605.1.15" etag="NY41wYvkLAKwHhIqLVFd" version="20.0.1" type="github" pages="2">
  <diagram id="BXKWxKxqRiXt8M5m2tgP" name="Page-1">
    <mxGraphModel dx="938" dy="555" grid="1" gridSize="10" guides="1" tooltips="1" connect="1" arrows="1" fold="1" page="1" pageScale="1" pageWidth="827" pageHeight="1169" math="1" shadow="0">
      <root>
        <mxCell id="0" />
        <mxCell id="1" parent="0" />
        <mxCell id="EvmXE36eUXYwkZY4mjBB-7" style="rounded=0;orthogonalLoop=1;jettySize=auto;html=1;entryX=0.5;entryY=0;entryDx=0;entryDy=0;fontSize=14;" edge="1" parent="1" source="EvmXE36eUXYwkZY4mjBB-1" target="EvmXE36eUXYwkZY4mjBB-4">
          <mxGeometry relative="1" as="geometry" />
        </mxCell>
        <mxCell id="EvmXE36eUXYwkZY4mjBB-1" value="$$F_1$$" style="ellipse;whiteSpace=wrap;html=1;aspect=fixed;fontSize=14;" vertex="1" parent="1">
          <mxGeometry x="280" y="70" width="50" height="50" as="geometry" />
        </mxCell>
        <mxCell id="EvmXE36eUXYwkZY4mjBB-8" style="edgeStyle=none;rounded=0;orthogonalLoop=1;jettySize=auto;html=1;entryX=0.5;entryY=0;entryDx=0;entryDy=0;fontSize=14;" edge="1" parent="1" source="EvmXE36eUXYwkZY4mjBB-3" target="EvmXE36eUXYwkZY4mjBB-4">
          <mxGeometry relative="1" as="geometry" />
        </mxCell>
        <mxCell id="EvmXE36eUXYwkZY4mjBB-3" value="$$F_2$$" style="ellipse;whiteSpace=wrap;html=1;aspect=fixed;fontSize=14;" vertex="1" parent="1">
          <mxGeometry x="380" y="70" width="50" height="50" as="geometry" />
        </mxCell>
        <mxCell id="EvmXE36eUXYwkZY4mjBB-9" style="edgeStyle=none;rounded=0;orthogonalLoop=1;jettySize=auto;html=1;entryX=0.5;entryY=0;entryDx=0;entryDy=0;fontSize=14;" edge="1" parent="1" source="EvmXE36eUXYwkZY4mjBB-4" target="EvmXE36eUXYwkZY4mjBB-6">
          <mxGeometry relative="1" as="geometry" />
        </mxCell>
        <mxCell id="EvmXE36eUXYwkZY4mjBB-4" value="$$F_3$$" style="ellipse;whiteSpace=wrap;html=1;aspect=fixed;fontSize=14;" vertex="1" parent="1">
          <mxGeometry x="330" y="140" width="50" height="50" as="geometry" />
        </mxCell>
        <mxCell id="EvmXE36eUXYwkZY4mjBB-10" style="edgeStyle=none;rounded=0;orthogonalLoop=1;jettySize=auto;html=1;entryX=0.5;entryY=0;entryDx=0;entryDy=0;fontSize=14;" edge="1" parent="1" source="EvmXE36eUXYwkZY4mjBB-5" target="EvmXE36eUXYwkZY4mjBB-6">
          <mxGeometry relative="1" as="geometry" />
        </mxCell>
        <mxCell id="EvmXE36eUXYwkZY4mjBB-5" value="$$F_4$$" style="ellipse;whiteSpace=wrap;html=1;aspect=fixed;fontSize=14;" vertex="1" parent="1">
          <mxGeometry x="430" y="140" width="50" height="50" as="geometry" />
        </mxCell>
        <mxCell id="EvmXE36eUXYwkZY4mjBB-6" value="$$Y$$" style="ellipse;whiteSpace=wrap;html=1;aspect=fixed;fontSize=14;" vertex="1" parent="1">
          <mxGeometry x="380" y="210" width="50" height="50" as="geometry" />
        </mxCell>
      </root>
    </mxGraphModel>
  </diagram>
  <diagram id="MRcU-LMNZ6wl2Zh7Pe2f" name="Page-2">
    <mxGraphModel dx="938" dy="555" grid="1" gridSize="10" guides="1" tooltips="1" connect="1" arrows="1" fold="1" page="1" pageScale="1" pageWidth="827" pageHeight="1169" math="1" shadow="0">
      <root>
        <mxCell id="0" />
        <mxCell id="1" parent="0" />
        <mxCell id="Wv8j4HqqJRN9qraU4RkA-30" style="edgeStyle=none;rounded=0;orthogonalLoop=1;jettySize=auto;html=1;entryX=0.5;entryY=0;entryDx=0;entryDy=0;fontSize=14;endArrow=none;endFill=0;exitX=0.5;exitY=1;exitDx=0;exitDy=0;" edge="1" parent="1" source="Wv8j4HqqJRN9qraU4RkA-1" target="Wv8j4HqqJRN9qraU4RkA-2">
          <mxGeometry relative="1" as="geometry" />
        </mxCell>
        <mxCell id="Wv8j4HqqJRN9qraU4RkA-35" style="edgeStyle=none;rounded=0;orthogonalLoop=1;jettySize=auto;html=1;entryX=0.5;entryY=0;entryDx=0;entryDy=0;fontSize=14;endArrow=none;endFill=0;exitX=0.5;exitY=1;exitDx=0;exitDy=0;" edge="1" parent="1" source="Wv8j4HqqJRN9qraU4RkA-1" target="Wv8j4HqqJRN9qraU4RkA-3">
          <mxGeometry relative="1" as="geometry" />
        </mxCell>
        <mxCell id="Wv8j4HqqJRN9qraU4RkA-1" value="" style="whiteSpace=wrap;html=1;aspect=fixed;fontSize=14;" vertex="1" parent="1">
          <mxGeometry x="380" y="50" width="30" height="30" as="geometry" />
        </mxCell>
        <mxCell id="Wv8j4HqqJRN9qraU4RkA-31" style="edgeStyle=none;rounded=0;orthogonalLoop=1;jettySize=auto;html=1;entryX=0.5;entryY=0;entryDx=0;entryDy=0;fontSize=14;endArrow=none;endFill=0;exitX=0.5;exitY=1;exitDx=0;exitDy=0;" edge="1" parent="1" source="Wv8j4HqqJRN9qraU4RkA-2" target="Wv8j4HqqJRN9qraU4RkA-4">
          <mxGeometry relative="1" as="geometry" />
        </mxCell>
        <mxCell id="Wv8j4HqqJRN9qraU4RkA-32" style="edgeStyle=none;rounded=0;orthogonalLoop=1;jettySize=auto;html=1;entryX=0.5;entryY=0;entryDx=0;entryDy=0;fontSize=14;endArrow=none;endFill=0;exitX=0.5;exitY=1;exitDx=0;exitDy=0;" edge="1" parent="1" source="Wv8j4HqqJRN9qraU4RkA-2" target="Wv8j4HqqJRN9qraU4RkA-5">
          <mxGeometry relative="1" as="geometry" />
        </mxCell>
        <mxCell id="Wv8j4HqqJRN9qraU4RkA-2" value="" style="ellipse;whiteSpace=wrap;html=1;aspect=fixed;fontSize=14;" vertex="1" parent="1">
          <mxGeometry x="270" y="110" width="30" height="30" as="geometry" />
        </mxCell>
        <mxCell id="Wv8j4HqqJRN9qraU4RkA-3" value="" style="ellipse;whiteSpace=wrap;html=1;aspect=fixed;fontSize=14;" vertex="1" parent="1">
          <mxGeometry x="500" y="110" width="30" height="30" as="geometry" />
        </mxCell>
        <mxCell id="Wv8j4HqqJRN9qraU4RkA-33" style="edgeStyle=none;rounded=0;orthogonalLoop=1;jettySize=auto;html=1;entryX=0.5;entryY=0;entryDx=0;entryDy=0;fontSize=14;endArrow=none;endFill=0;exitX=0.5;exitY=1;exitDx=0;exitDy=0;" edge="1" parent="1" source="Wv8j4HqqJRN9qraU4RkA-4" target="Wv8j4HqqJRN9qraU4RkA-8">
          <mxGeometry relative="1" as="geometry" />
        </mxCell>
        <mxCell id="Wv8j4HqqJRN9qraU4RkA-34" style="edgeStyle=none;rounded=0;orthogonalLoop=1;jettySize=auto;html=1;entryX=0.5;entryY=0;entryDx=0;entryDy=0;fontSize=14;endArrow=none;endFill=0;exitX=0.5;exitY=1;exitDx=0;exitDy=0;" edge="1" parent="1" source="Wv8j4HqqJRN9qraU4RkA-4" target="Wv8j4HqqJRN9qraU4RkA-9">
          <mxGeometry relative="1" as="geometry" />
        </mxCell>
        <mxCell id="Wv8j4HqqJRN9qraU4RkA-4" value="" style="whiteSpace=wrap;html=1;aspect=fixed;fontSize=14;" vertex="1" parent="1">
          <mxGeometry x="150" y="179" width="30" height="30" as="geometry" />
        </mxCell>
        <mxCell id="Wv8j4HqqJRN9qraU4RkA-5" value="" style="whiteSpace=wrap;html=1;aspect=fixed;fontSize=14;" vertex="1" parent="1">
          <mxGeometry x="310" y="179" width="30" height="30" as="geometry" />
        </mxCell>
        <mxCell id="Wv8j4HqqJRN9qraU4RkA-6" value="" style="whiteSpace=wrap;html=1;aspect=fixed;fontSize=14;" vertex="1" parent="1">
          <mxGeometry x="450" y="179" width="30" height="30" as="geometry" />
        </mxCell>
        <mxCell id="Wv8j4HqqJRN9qraU4RkA-7" value="" style="whiteSpace=wrap;html=1;aspect=fixed;fontSize=14;" vertex="1" parent="1">
          <mxGeometry x="600" y="179" width="30" height="30" as="geometry" />
        </mxCell>
        <mxCell id="Wv8j4HqqJRN9qraU4RkA-8" value="" style="ellipse;whiteSpace=wrap;html=1;aspect=fixed;fontSize=14;" vertex="1" parent="1">
          <mxGeometry x="90" y="250" width="30" height="30" as="geometry" />
        </mxCell>
        <mxCell id="Wv8j4HqqJRN9qraU4RkA-9" value="" style="ellipse;whiteSpace=wrap;html=1;aspect=fixed;fontSize=14;" vertex="1" parent="1">
          <mxGeometry x="190" y="250" width="30" height="30" as="geometry" />
        </mxCell>
        <mxCell id="Wv8j4HqqJRN9qraU4RkA-10" value="" style="ellipse;whiteSpace=wrap;html=1;aspect=fixed;fontSize=14;" vertex="1" parent="1">
          <mxGeometry x="270" y="250" width="30" height="30" as="geometry" />
        </mxCell>
        <mxCell id="Wv8j4HqqJRN9qraU4RkA-11" value="" style="ellipse;whiteSpace=wrap;html=1;aspect=fixed;fontSize=14;" vertex="1" parent="1">
          <mxGeometry x="360" y="250" width="30" height="30" as="geometry" />
        </mxCell>
        <mxCell id="Wv8j4HqqJRN9qraU4RkA-12" value="" style="ellipse;whiteSpace=wrap;html=1;aspect=fixed;fontSize=14;" vertex="1" parent="1">
          <mxGeometry x="440" y="250" width="30" height="30" as="geometry" />
        </mxCell>
        <mxCell id="Wv8j4HqqJRN9qraU4RkA-13" value="" style="ellipse;whiteSpace=wrap;html=1;aspect=fixed;fontSize=14;" vertex="1" parent="1">
          <mxGeometry x="510" y="250" width="30" height="30" as="geometry" />
        </mxCell>
        <mxCell id="Wv8j4HqqJRN9qraU4RkA-14" value="" style="ellipse;whiteSpace=wrap;html=1;aspect=fixed;fontSize=14;" vertex="1" parent="1">
          <mxGeometry x="630" y="250" width="30" height="30" as="geometry" />
        </mxCell>
        <mxCell id="Wv8j4HqqJRN9qraU4RkA-16" value="3" style="whiteSpace=wrap;html=1;aspect=fixed;fontSize=14;" vertex="1" parent="1">
          <mxGeometry x="60" y="320" width="30" height="30" as="geometry" />
        </mxCell>
        <mxCell id="Wv8j4HqqJRN9qraU4RkA-17" value="17" style="whiteSpace=wrap;html=1;aspect=fixed;fontSize=14;" vertex="1" parent="1">
          <mxGeometry x="110" y="320" width="30" height="30" as="geometry" />
        </mxCell>
        <mxCell id="Wv8j4HqqJRN9qraU4RkA-18" value="2" style="whiteSpace=wrap;html=1;aspect=fixed;fontSize=14;" vertex="1" parent="1">
          <mxGeometry x="160" y="320" width="30" height="30" as="geometry" />
        </mxCell>
        <mxCell id="Wv8j4HqqJRN9qraU4RkA-20" value="12" style="whiteSpace=wrap;html=1;aspect=fixed;fontSize=14;" vertex="1" parent="1">
          <mxGeometry x="210" y="320" width="30" height="30" as="geometry" />
        </mxCell>
        <mxCell id="Wv8j4HqqJRN9qraU4RkA-21" value="15" style="whiteSpace=wrap;html=1;aspect=fixed;fontSize=14;" vertex="1" parent="1">
          <mxGeometry x="270" y="320" width="30" height="30" as="geometry" />
        </mxCell>
        <mxCell id="Wv8j4HqqJRN9qraU4RkA-22" value="25" style="whiteSpace=wrap;html=1;aspect=fixed;fontSize=14;" vertex="1" parent="1">
          <mxGeometry x="320" y="320" width="30" height="30" as="geometry" />
        </mxCell>
        <mxCell id="Wv8j4HqqJRN9qraU4RkA-23" value="0" style="whiteSpace=wrap;html=1;aspect=fixed;fontSize=14;" vertex="1" parent="1">
          <mxGeometry x="360" y="320" width="30" height="30" as="geometry" />
        </mxCell>
        <mxCell id="Wv8j4HqqJRN9qraU4RkA-24" value="2" style="whiteSpace=wrap;html=1;aspect=fixed;fontSize=14;" vertex="1" parent="1">
          <mxGeometry x="410" y="320" width="30" height="30" as="geometry" />
        </mxCell>
        <mxCell id="Wv8j4HqqJRN9qraU4RkA-25" value="5" style="whiteSpace=wrap;html=1;aspect=fixed;fontSize=14;" vertex="1" parent="1">
          <mxGeometry x="460" y="320" width="30" height="30" as="geometry" />
        </mxCell>
        <mxCell id="Wv8j4HqqJRN9qraU4RkA-26" value="3" style="whiteSpace=wrap;html=1;aspect=fixed;fontSize=14;" vertex="1" parent="1">
          <mxGeometry x="540" y="320" width="30" height="30" as="geometry" />
        </mxCell>
        <mxCell id="Wv8j4HqqJRN9qraU4RkA-27" value="2" style="whiteSpace=wrap;html=1;aspect=fixed;fontSize=14;" vertex="1" parent="1">
          <mxGeometry x="600" y="320" width="30" height="30" as="geometry" />
        </mxCell>
        <mxCell id="Wv8j4HqqJRN9qraU4RkA-29" value="14" style="whiteSpace=wrap;html=1;aspect=fixed;fontSize=14;" vertex="1" parent="1">
          <mxGeometry x="660" y="320" width="30" height="30" as="geometry" />
        </mxCell>
        <mxCell id="Wv8j4HqqJRN9qraU4RkA-36" value="" style="endArrow=none;html=1;rounded=0;fontSize=14;exitX=0.5;exitY=0;exitDx=0;exitDy=0;entryX=0.5;entryY=1;entryDx=0;entryDy=0;" edge="1" parent="1" source="Wv8j4HqqJRN9qraU4RkA-6" target="Wv8j4HqqJRN9qraU4RkA-3">
          <mxGeometry width="50" height="50" relative="1" as="geometry">
            <mxPoint x="520" y="220" as="sourcePoint" />
            <mxPoint x="570" y="170" as="targetPoint" />
          </mxGeometry>
        </mxCell>
        <mxCell id="Wv8j4HqqJRN9qraU4RkA-38" value="" style="endArrow=none;html=1;rounded=0;fontSize=14;exitX=0.5;exitY=0;exitDx=0;exitDy=0;entryX=0.5;entryY=1;entryDx=0;entryDy=0;" edge="1" parent="1" source="Wv8j4HqqJRN9qraU4RkA-7" target="Wv8j4HqqJRN9qraU4RkA-3">
          <mxGeometry width="50" height="50" relative="1" as="geometry">
            <mxPoint x="475" y="189" as="sourcePoint" />
            <mxPoint x="525" y="150" as="targetPoint" />
          </mxGeometry>
        </mxCell>
        <mxCell id="Wv8j4HqqJRN9qraU4RkA-39" value="" style="endArrow=none;html=1;rounded=0;fontSize=14;exitX=0.5;exitY=0;exitDx=0;exitDy=0;entryX=0.5;entryY=1;entryDx=0;entryDy=0;" edge="1" parent="1" source="Wv8j4HqqJRN9qraU4RkA-10" target="Wv8j4HqqJRN9qraU4RkA-5">
          <mxGeometry width="50" height="50" relative="1" as="geometry">
            <mxPoint x="485" y="199" as="sourcePoint" />
            <mxPoint x="535" y="160" as="targetPoint" />
          </mxGeometry>
        </mxCell>
        <mxCell id="Wv8j4HqqJRN9qraU4RkA-40" value="" style="endArrow=none;html=1;rounded=0;fontSize=14;exitX=0.5;exitY=0;exitDx=0;exitDy=0;entryX=0.5;entryY=1;entryDx=0;entryDy=0;" edge="1" parent="1" source="Wv8j4HqqJRN9qraU4RkA-11" target="Wv8j4HqqJRN9qraU4RkA-5">
          <mxGeometry width="50" height="50" relative="1" as="geometry">
            <mxPoint x="495" y="209" as="sourcePoint" />
            <mxPoint x="545" y="170" as="targetPoint" />
          </mxGeometry>
        </mxCell>
        <mxCell id="Wv8j4HqqJRN9qraU4RkA-41" value="" style="endArrow=none;html=1;rounded=0;fontSize=14;exitX=0.5;exitY=0;exitDx=0;exitDy=0;entryX=0.5;entryY=1;entryDx=0;entryDy=0;" edge="1" parent="1" source="Wv8j4HqqJRN9qraU4RkA-12" target="Wv8j4HqqJRN9qraU4RkA-6">
          <mxGeometry width="50" height="50" relative="1" as="geometry">
            <mxPoint x="505" y="219" as="sourcePoint" />
            <mxPoint x="555" y="180" as="targetPoint" />
          </mxGeometry>
        </mxCell>
        <mxCell id="Wv8j4HqqJRN9qraU4RkA-42" value="" style="endArrow=none;html=1;rounded=0;fontSize=14;exitX=0.5;exitY=0;exitDx=0;exitDy=0;entryX=0.5;entryY=1;entryDx=0;entryDy=0;" edge="1" parent="1" source="Wv8j4HqqJRN9qraU4RkA-13" target="Wv8j4HqqJRN9qraU4RkA-6">
          <mxGeometry width="50" height="50" relative="1" as="geometry">
            <mxPoint x="515" y="229" as="sourcePoint" />
            <mxPoint x="565" y="190" as="targetPoint" />
          </mxGeometry>
        </mxCell>
        <mxCell id="Wv8j4HqqJRN9qraU4RkA-43" value="" style="endArrow=none;html=1;rounded=0;fontSize=14;exitX=0.5;exitY=0;exitDx=0;exitDy=0;entryX=0.5;entryY=1;entryDx=0;entryDy=0;" edge="1" parent="1" source="Wv8j4HqqJRN9qraU4RkA-14" target="Wv8j4HqqJRN9qraU4RkA-7">
          <mxGeometry width="50" height="50" relative="1" as="geometry">
            <mxPoint x="525" y="239" as="sourcePoint" />
            <mxPoint x="575" y="200" as="targetPoint" />
          </mxGeometry>
        </mxCell>
        <mxCell id="Wv8j4HqqJRN9qraU4RkA-44" value="" style="endArrow=none;html=1;rounded=0;fontSize=14;exitX=0.5;exitY=0;exitDx=0;exitDy=0;entryX=0.5;entryY=1;entryDx=0;entryDy=0;" edge="1" parent="1" source="Wv8j4HqqJRN9qraU4RkA-16" target="Wv8j4HqqJRN9qraU4RkA-8">
          <mxGeometry width="50" height="50" relative="1" as="geometry">
            <mxPoint x="535" y="249" as="sourcePoint" />
            <mxPoint x="585" y="210" as="targetPoint" />
          </mxGeometry>
        </mxCell>
        <mxCell id="Wv8j4HqqJRN9qraU4RkA-45" value="" style="endArrow=none;html=1;rounded=0;fontSize=14;exitX=0.5;exitY=0;exitDx=0;exitDy=0;entryX=0.5;entryY=1;entryDx=0;entryDy=0;" edge="1" parent="1" source="Wv8j4HqqJRN9qraU4RkA-17" target="Wv8j4HqqJRN9qraU4RkA-8">
          <mxGeometry width="50" height="50" relative="1" as="geometry">
            <mxPoint x="545" y="259" as="sourcePoint" />
            <mxPoint x="595" y="220" as="targetPoint" />
          </mxGeometry>
        </mxCell>
        <mxCell id="Wv8j4HqqJRN9qraU4RkA-46" value="" style="endArrow=none;html=1;rounded=0;fontSize=14;exitX=0.5;exitY=0;exitDx=0;exitDy=0;entryX=0.5;entryY=1;entryDx=0;entryDy=0;" edge="1" parent="1" source="Wv8j4HqqJRN9qraU4RkA-18" target="Wv8j4HqqJRN9qraU4RkA-9">
          <mxGeometry width="50" height="50" relative="1" as="geometry">
            <mxPoint x="555" y="269" as="sourcePoint" />
            <mxPoint x="605" y="230" as="targetPoint" />
          </mxGeometry>
        </mxCell>
        <mxCell id="Wv8j4HqqJRN9qraU4RkA-47" value="" style="endArrow=none;html=1;rounded=0;fontSize=14;exitX=0.5;exitY=0;exitDx=0;exitDy=0;entryX=0.5;entryY=1;entryDx=0;entryDy=0;" edge="1" parent="1" source="Wv8j4HqqJRN9qraU4RkA-20" target="Wv8j4HqqJRN9qraU4RkA-9">
          <mxGeometry width="50" height="50" relative="1" as="geometry">
            <mxPoint x="565" y="279" as="sourcePoint" />
            <mxPoint x="615" y="240" as="targetPoint" />
          </mxGeometry>
        </mxCell>
        <mxCell id="Wv8j4HqqJRN9qraU4RkA-48" value="" style="endArrow=none;html=1;rounded=0;fontSize=14;exitX=0.5;exitY=0;exitDx=0;exitDy=0;entryX=0.5;entryY=1;entryDx=0;entryDy=0;" edge="1" parent="1" source="Wv8j4HqqJRN9qraU4RkA-21" target="Wv8j4HqqJRN9qraU4RkA-10">
          <mxGeometry width="50" height="50" relative="1" as="geometry">
            <mxPoint x="575" y="289" as="sourcePoint" />
            <mxPoint x="625" y="250" as="targetPoint" />
          </mxGeometry>
        </mxCell>
        <mxCell id="Wv8j4HqqJRN9qraU4RkA-49" value="" style="endArrow=none;html=1;rounded=0;fontSize=14;exitX=0.5;exitY=0;exitDx=0;exitDy=0;entryX=0.5;entryY=1;entryDx=0;entryDy=0;" edge="1" parent="1" source="Wv8j4HqqJRN9qraU4RkA-22" target="Wv8j4HqqJRN9qraU4RkA-11">
          <mxGeometry width="50" height="50" relative="1" as="geometry">
            <mxPoint x="585" y="299" as="sourcePoint" />
            <mxPoint x="635" y="260" as="targetPoint" />
          </mxGeometry>
        </mxCell>
        <mxCell id="Wv8j4HqqJRN9qraU4RkA-50" value="" style="endArrow=none;html=1;rounded=0;fontSize=14;exitX=0.5;exitY=0;exitDx=0;exitDy=0;entryX=0.5;entryY=1;entryDx=0;entryDy=0;" edge="1" parent="1" source="Wv8j4HqqJRN9qraU4RkA-23" target="Wv8j4HqqJRN9qraU4RkA-11">
          <mxGeometry width="50" height="50" relative="1" as="geometry">
            <mxPoint x="595" y="309" as="sourcePoint" />
            <mxPoint x="645" y="270" as="targetPoint" />
          </mxGeometry>
        </mxCell>
        <mxCell id="Wv8j4HqqJRN9qraU4RkA-51" value="" style="endArrow=none;html=1;rounded=0;fontSize=14;exitX=0.5;exitY=0;exitDx=0;exitDy=0;entryX=0.5;entryY=1;entryDx=0;entryDy=0;" edge="1" parent="1" source="Wv8j4HqqJRN9qraU4RkA-24" target="Wv8j4HqqJRN9qraU4RkA-12">
          <mxGeometry width="50" height="50" relative="1" as="geometry">
            <mxPoint x="605" y="319" as="sourcePoint" />
            <mxPoint x="655" y="280" as="targetPoint" />
          </mxGeometry>
        </mxCell>
        <mxCell id="Wv8j4HqqJRN9qraU4RkA-52" value="" style="endArrow=none;html=1;rounded=0;fontSize=14;exitX=0.5;exitY=0;exitDx=0;exitDy=0;entryX=0.5;entryY=1;entryDx=0;entryDy=0;" edge="1" parent="1" source="Wv8j4HqqJRN9qraU4RkA-25" target="Wv8j4HqqJRN9qraU4RkA-12">
          <mxGeometry width="50" height="50" relative="1" as="geometry">
            <mxPoint x="615" y="329" as="sourcePoint" />
            <mxPoint x="665" y="290" as="targetPoint" />
          </mxGeometry>
        </mxCell>
        <mxCell id="Wv8j4HqqJRN9qraU4RkA-53" value="" style="endArrow=none;html=1;rounded=0;fontSize=14;exitX=0.5;exitY=0;exitDx=0;exitDy=0;entryX=0.5;entryY=1;entryDx=0;entryDy=0;" edge="1" parent="1" source="Wv8j4HqqJRN9qraU4RkA-26" target="Wv8j4HqqJRN9qraU4RkA-13">
          <mxGeometry width="50" height="50" relative="1" as="geometry">
            <mxPoint x="625" y="339" as="sourcePoint" />
            <mxPoint x="675" y="300" as="targetPoint" />
          </mxGeometry>
        </mxCell>
        <mxCell id="Wv8j4HqqJRN9qraU4RkA-54" value="" style="endArrow=none;html=1;rounded=0;fontSize=14;exitX=0.5;exitY=0;exitDx=0;exitDy=0;entryX=0.5;entryY=1;entryDx=0;entryDy=0;" edge="1" parent="1" source="Wv8j4HqqJRN9qraU4RkA-27" target="Wv8j4HqqJRN9qraU4RkA-14">
          <mxGeometry width="50" height="50" relative="1" as="geometry">
            <mxPoint x="635" y="349" as="sourcePoint" />
            <mxPoint x="685" y="310" as="targetPoint" />
          </mxGeometry>
        </mxCell>
        <mxCell id="Wv8j4HqqJRN9qraU4RkA-55" value="" style="endArrow=none;html=1;rounded=0;fontSize=14;exitX=0.5;exitY=0;exitDx=0;exitDy=0;entryX=0.5;entryY=1;entryDx=0;entryDy=0;" edge="1" parent="1" source="Wv8j4HqqJRN9qraU4RkA-29" target="Wv8j4HqqJRN9qraU4RkA-14">
          <mxGeometry width="50" height="50" relative="1" as="geometry">
            <mxPoint x="645" y="359" as="sourcePoint" />
            <mxPoint x="695" y="320" as="targetPoint" />
          </mxGeometry>
        </mxCell>
      </root>
    </mxGraphModel>
  </diagram>
</mxfile>
